<?xml version="1.0" standalone="no"?>
<!DOCTYPE svg PUBLIC "-//W3C//DTD SVG 20010904//EN"
 "http://www.w3.org/TR/2001/REC-SVG-20010904/DTD/svg10.dtd">
<svg version="1.0" xmlns="http://www.w3.org/2000/svg"
 width="200.000000pt" height="200.000000pt" viewBox="0 0 200.000000 200.000000"
 preserveAspectRatio="xMidYMid meet">
<metadata>
Created by potrace 1.14, written by Peter Selinger 2001-2017
</metadata>
<g transform="translate(0.000000,200.000000) scale(0.100000,-0.100000)"
fill="#000000" stroke="none">
<path d="M0 1000 l0 -1000 1000 0 1000 0 0 1000 0 1000 -1000 0 -1000 0 0
-1000z m1343 569 c53 -14 110 -69 137 -132 18 -40 23 -72 24 -139 0 -79 -2
-92 -34 -155 -30 -57 -44 -73 -89 -100 -115 -69 -266 -50 -336 41 -37 48 -55
116 -55 202 0 185 95 292 260 294 30 0 72 -5 93 -11z m-385 -76 l-3 -78 -33
-3 c-33 -3 -35 -1 -46 51 -6 25 -10 27 -51 27 l-45 0 2 -202 3 -202 33 -10
c26 -7 32 -14 32 -37 l0 -29 -125 0 -125 0 0 30 c0 25 4 30 35 36 l35 6 0 204
0 204 -44 0 c-43 0 -44 -1 -53 -37 -8 -33 -13 -38 -41 -41 l-32 -3 0 80 0 81
230 0 231 0 -3 -77z m474 -579 c86 -60 127 -179 107 -307 -16 -100 -62 -167
-144 -210 -59 -31 -184 -30 -243 1 -90 48 -128 138 -120 285 7 134 46 199 148
247 37 17 60 20 128 17 72 -3 88 -7 124 -33z m-637 15 c58 -16 101 -53 132
-112 24 -46 27 -64 28 -148 0 -87 -3 -101 -30 -154 -34 -66 -84 -107 -152
-124 -23 -6 -105 -11 -182 -11 l-141 0 0 29 c0 25 5 31 30 36 l30 7 0 208 0
208 -30 7 c-25 5 -30 11 -30 36 l0 29 153 0 c83 0 170 -5 192 -11z"/>
<path d="M1182 1478 c-12 -6 -32 -27 -45 -47 -19 -31 -22 -50 -22 -131 0 -152
38 -210 136 -210 36 0 48 6 79 39 42 44 50 73 50 175 0 80 -23 143 -61 170
-27 18 -102 20 -137 4z"/>
<path d="M1214 841 c-45 -28 -59 -71 -59 -186 0 -145 35 -195 136 -195 33 0
47 6 74 33 40 40 55 90 55 182 0 79 -23 142 -61 169 -32 22 -106 21 -145 -3z"/>
<path d="M623 845 c4 -9 7 -100 7 -202 l0 -186 54 6 c115 12 152 64 150 212
-2 134 -36 177 -146 183 -64 4 -70 3 -65 -13z"/>
</g>
</svg>
